<?xml version="1.0" encoding="utf-8"?>
<!-- Generator: Adobe Illustrator 17.1.0, SVG Export Plug-In . SVG Version: 6.00 Build 0)  -->
<!DOCTYPE svg PUBLIC "-//W3C//DTD SVG 1.1//EN" "http://www.w3.org/Graphics/SVG/1.1/DTD/svg11.dtd">
<svg version="1.1" id="Capa_1" xmlns="http://www.w3.org/2000/svg" xmlns:xlink="http://www.w3.org/1999/xlink" x="0px" y="0px"
	 viewBox="0 0 1222.5 209.6" enable-background="new 0 0 1222.5 209.6" xml:space="preserve">
<g>
	<g>
		<defs>
			<path id="SVGID_1_" d="M67.3,63.9c-3.5,0.7-6.7,2.4-9.3,4.7l-0.1,0.1c-0.7,0.6-1.4,1.4-2.1,2.1c-2.1,2.5-3.6,5.6-4.3,8.9
				c-0.2,0.9-0.3,1.9-0.4,2.8c-1,11.4-1.6,20.5-5.6,27.8c-3.9,7.3-11.2,12.9-25.5,17.3c-4.1,1.1-7.8,3.4-10.5,6.6
				c-2.7,3.2-4.4,7.3-4.6,11.9c-0.3,5.5,1.7,10.7,5.1,14.5c3.4,3.8,8.3,6.3,13.9,6.6c5.5,0.3,10.6-1.7,14.3-5.2
				c3.8-3.5,6.3-8.4,6.8-13.9c1.3-15.1,3-24.3,7.7-30.8c4.4-6.1,11.4-10,23.1-14.1c3.3-0.8,6.3-2.4,8.7-4.6l0.1-0.1
				c1-0.9,1.9-1.9,2.8-3c1.7-2.3,2.9-5.1,3.5-8c0.2-0.9,0.3-1.9,0.4-2.8c1.3-15.1,3.1-24.3,7.8-30.8c4.7-6.6,12.4-10.5,25.7-15l0,0
				h0c3.6-1.4,6.7-3.8,8.9-6.9c2.3-3.1,3.7-6.8,3.9-10.9c0.3-5.6-1.7-10.7-5.1-14.5c-3.4-3.8-8.3-6.3-13.9-6.6
				c-5.5-0.3-10.6,1.7-14.3,5.2c-3.8,3.4-6.3,8.4-6.8,13.9c-1,11.4-1.6,20.5-5.5,27.8C88,54.1,81,59.6,67.3,63.9z"/>
		</defs>
		<use xlink:href="#SVGID_1_"  overflow="visible" fill-rule="evenodd" clip-rule="evenodd" fill="#0D2042"/>
		<clipPath id="SVGID_2_">
			<use xlink:href="#SVGID_1_"  overflow="visible"/>
		</clipPath>
	</g>
	<g>
		<defs>
			<path id="SVGID_3_" d="M105.5,79.9c2.7,7.3,9.5,12.6,17.8,13c0.5,0,1.1,0,1.6,0c10.6,0.9,19.2,1.7,26.2,5.4
				c7.3,3.9,12.9,11.2,17.3,25.6c1,4.2,3.4,7.8,6.6,10.5c3.2,2.7,7.3,4.4,11.8,4.6c5.6,0.3,10.7-1.7,14.5-5.1
				c3.8-3.4,6.3-8.3,6.6-13.9c0.3-5.5-1.7-10.6-5.2-14.3c-3.5-3.8-8.4-6.3-13.9-6.8c-15.1-1.3-24.3-3-30.9-7.8
				c-6.6-4.7-10.5-12.4-15-25.7l0,0v0c-1.4-3.6-3.8-6.7-6.9-8.9c-2.8-2.1-6.2-3.4-9.9-3.8l-0.1,0l-0.4,0h0h0c-0.2,0-0.3,0-0.5,0
				h-0.3c-0.2,0-0.5,0-0.7,0H124h-0.2l0,0l-0.3,0h-0.3h0l-0.5,0h0c-4.6,0.3-8.7,2.2-12,5.1c-3.8,3.4-6.3,8.3-6.6,13.9
				C104,74.6,104.5,77.4,105.5,79.9z"/>
		</defs>
		<use xlink:href="#SVGID_3_"  overflow="visible" fill-rule="evenodd" clip-rule="evenodd" fill="#0066AC"/>
		<clipPath id="SVGID_4_">
			<use xlink:href="#SVGID_3_"  overflow="visible"/>
		</clipPath>
	</g>
	<g>
		<defs>
			<path id="SVGID_5_" d="M59.4,142.9c2.7,7.3,9.5,12.6,17.8,13c0.5,0,1.1,0,1.6,0c10.6,0.9,19.2,1.7,26.2,5.4
				c7.3,3.9,12.9,11.2,17.3,25.5c1,4.2,3.4,7.8,6.6,10.5c3.2,2.7,7.3,4.4,11.8,4.6c5.6,0.3,10.7-1.7,14.5-5.1
				c3.8-3.4,6.3-8.3,6.6-13.9c0.3-5.5-1.7-10.6-5.2-14.3c-3.5-3.8-8.4-6.3-13.9-6.8c-15.1-1.3-24.3-3.1-30.8-7.7
				c-6.6-4.7-10.5-12.4-15-25.7l0,0v0c-1.4-3.6-3.8-6.7-6.8-8.9c-2.8-2.1-6.2-3.4-9.9-3.8l-0.1,0l-0.4,0h0h0c-0.2,0-0.3,0-0.5,0
				h-0.3c-0.2,0-0.5,0-0.7,0H78h-0.3l0,0l-0.3,0h-0.2h0l-0.5,0h0c-4.6,0.3-8.7,2.2-12,5.1c-3.8,3.4-6.3,8.3-6.6,13.9
				C58,137.6,58.4,140.4,59.4,142.9z"/>
		</defs>
		<use xlink:href="#SVGID_5_"  overflow="visible" fill-rule="evenodd" clip-rule="evenodd" fill="#0066AC"/>
		<clipPath id="SVGID_6_">
			<use xlink:href="#SVGID_5_"  overflow="visible"/>
		</clipPath>
	</g>
	<g>
		<path fill="#0066AC" d="M939.1,51.8c0,0-92.5,0.3-111.4,1.1c-19,0.8-18.7,16.5-18.7,16.5s0.3,57.5,0,72.1
			c-0.2,14.6,14.9,16,14.9,16h115.2c0,0,1.6-11.9-7.3-17.6c-8.9-5.7-12.7-5.1-12.7-5.1l-52.9-0.8c0,0-7.8-1.6-7.9-7.3
			c0-5.7-0.3-35.8-0.3-41.5c0-5.7,6.8-5.7,6.8-5.7l56.1-0.8c0,0,6.2,0.5,13-9.2C940.8,59.7,939.1,51.8,939.1,51.8z"/>
	</g>
	<g>
		<path fill="#0066AC" d="M1080.4,140.5V68.1c0,0-0.3-16.3-18.2-16.3c-17.9,0-71.3,0-91.7,0c-20.3,0-22.5,20.9-22.5,20.9v62.9
			c0,0-3,21.4,23.6,21.7c26.6,0.3,67.5,0,89.7,0C1083.6,157.3,1080.4,140.5,1080.4,140.5z M1032.1,127.7c0,9.4-7.6,17.1-17.1,17.1
			c-9.4,0-17.1-7.6-17.1-17.1V81.1c0-9.4,7.6-17.1,17.1-17.1c9.4,0,17.1,7.6,17.1,17.1V127.7z"/>
	</g>
	<g>
		<path fill="#0066AC" d="M1089.9,152.9c0-5.4,0-81.6,0-81.6s0.8-19.5,21.7-19.5c20.9,0,74.6,0.3,91.7,0c17.1-0.3,19.3,19,19.3,19
			s0,75.4,0,82.2c0,6.8-6,4.9-6,4.9h-35.8c0,0-7.2,1.6-7.3-5.7c-0.1-7.3-0.8-78.1-0.8-78.1s-2.2-7.9-7.6-7.9c-5.4,0-7.6-0.3-16.8,0
			c-9.2,0.3-8.7,8.1-8.7,8.1s-0.3,74,0,78.6c0.3,4.6-4.3,4.9-4.3,4.9h-38.8C1096.4,157.8,1089.9,158.4,1089.9,152.9z"/>
	</g>
	<g>
		<g>
			<path fill="#0D2042" stroke="#0D2042" stroke-width="0.303" stroke-miterlimit="10" d="M261.9,168c2.9,0,5.6,0.9,8.1,2.6
				c2.7,1.8,4.4,4.2,5.3,7.1c0.6,2.1,1,4.3,1,6.6c0,4.6-1.2,8.6-3.6,12.1c-2.7,3.9-6.3,5.9-10.8,5.9h-18.5v-34.3
				C243.6,168,249.8,168,261.9,168z M262.2,171.2h-15.6v27.7h15.6c3.4,0,6.2-1.7,8.3-5.2c1.8-2.9,2.7-6.3,2.7-9.9
				c0-2-0.3-3.7-0.9-5.3c-0.9-2.3-2.4-4.2-4.7-5.5C265.8,172,264.1,171.4,262.2,171.2z"/>
		</g>
		<g>
			<path fill="#0D2042" stroke="#0D2042" stroke-width="0.303" stroke-miterlimit="10" d="M282.5,202.2h-3.1v-23.8
				c1.1-0.1,2.1-0.3,3.1-0.4v1.1c2.2-1.3,4.7-1.9,7.6-1.9c3.4,0,6.1,0.9,8.2,2.7l-2,2c-0.3-0.3-0.7-0.6-1.1-0.9
				c-1.4-0.8-3.3-1.2-5.7-1.2c-1.9,0-3.5,0.3-4.7,0.9c-1.5,0.7-2.2,1.8-2.2,3.1V202.2z"/>
		</g>
		<g>
			<path fill="#0D2042" stroke="#0D2042" stroke-width="0.303" stroke-miterlimit="10" d="M321.5,184.1c0,4.5-4.1,6.7-12.4,6.7
				c-2,0-4.2-0.1-6.6-0.4c-0.2,2.5,0.6,4.6,2.3,6.3c1.6,1.5,3.7,2.3,6.2,2.3h9.6v2.6h-10c-7.4-0.1-11.1-3.9-11.1-11.4
				c0-3.8,1.1-6.8,3.4-9.1c2.3-2.2,5.3-3.4,9.1-3.4C318.3,177.7,321.5,179.9,321.5,184.1z M318.4,184.1c0-2.6-2.2-3.9-6.5-3.9
				c-2,0-3.9,0.6-5.9,1.8c-2.1,1.3-3.2,2.9-3.2,4.7c0,0.9,2.4,1.4,7.3,1.4C315.7,188.1,318.4,186.7,318.4,184.1z"/>
		</g>
		<g>
			<path fill="#0D2042" stroke="#0D2042" stroke-width="0.303" stroke-miterlimit="10" d="M336.3,201.6c-3.4,0-5.9-0.3-7.2-0.9
				c-2.3-1-3.5-2.9-3.5-5.8c0-2.5,1.3-4.5,3.9-5.8c2-1,4.4-1.5,7.3-1.5c1.9,0,4.8,0.2,8.4,0.7v-3.9c0-2.6-2.5-3.9-7.6-3.9
				c-3,0-6.4,0.4-10.1,1.2v-2.6c4.6-0.8,8.1-1.2,10.6-1.2c6.7,0,10.1,2.2,10.1,6.6v17.1H336.3z M345.1,199.1V191
				c-2.4-0.6-4.9-0.8-7.4-0.8c-2.4,0-4.5,0.3-6.2,0.8c-2,0.6-3.1,1.9-3.1,3.8c0,2,1,3.3,3,3.9c0.8,0.2,2.6,0.3,5.4,0.3H345.1z"/>
		</g>
		<g>
			<path fill="#0D2042" stroke="#0D2042" stroke-width="0.303" stroke-miterlimit="10" d="M390.3,202h-3l0-16.8c0-1.7-0.8-3-2.4-3.9
				c-1.3-0.8-2.8-1.1-4.6-1.1c-5.2,0-7.8,1.3-7.8,4V202h-3.1v-17.9c0-2.7-2.5-4-7.5-4c-1.7,0-3.2,0.4-4.6,1.2
				c-1.5,0.9-2.3,2.2-2.3,3.8V202h-3v-17c0-2.4,1.1-4.3,3.3-5.7c1.9-1.2,4.1-1.8,6.6-1.8c3.7,0,6.7,0.9,9.1,2.8
				c2.4-1.9,5.4-2.8,9.1-2.8c2.6,0,4.8,0.6,6.7,1.8c2.2,1.4,3.3,3.3,3.3,5.7V202z"/>
		</g>
		<g>
			<path fill="#0D2042" stroke="#0D2042" stroke-width="0.303" stroke-miterlimit="10" d="M409.9,174.7h-3v-4l3,0V174.7z
				 M409.9,202.2h-3v-24.5h3V202.2z"/>
		</g>
		<g>
			<path fill="#0D2042" stroke="#0D2042" stroke-width="0.303" stroke-miterlimit="10" d="M426.9,200.8c-3.1,0.9-5.6,1.4-7.4,1.4
				c-1.6,0-3-0.4-4.2-1.1c-1.4-0.8-2.1-2-2.1-3.6V168h3v9.9h10.2v3h-10.2v15.4c0,2.1,1.1,3.2,3.3,3.2c1.8,0,4.2-0.6,7.3-1.9V200.8z"
				/>
		</g>
		<g>
			<path fill="#0D2042" stroke="#0D2042" stroke-width="0.303" stroke-miterlimit="10" d="M438.3,198l-6.5,7.8h-3.6l6.4-7.8H438.3z"
				/>
		</g>
		<g>
			<path fill="#0D2042" stroke="#0D2042" stroke-width="0.303" stroke-miterlimit="10" d="M475.6,187.2l-5-9.8h3.6l3.2,6.3l3.3-6.3
				h3.5l-5,9.8l6.4,12.6l11.4-22.4h3.5c-8.9,17.5-13.2,25.8-12.7,25h-4.4l-6-11.7c-4,7.8-6,11.7-6,11.7H467l-12.7-25h3.5l11.4,22.4
				L475.6,187.2z"/>
		</g>
		<g>
			<path fill="#0D2042" stroke="#0D2042" stroke-width="0.303" stroke-miterlimit="10" d="M524.6,184.1c0,4.5-4.1,6.7-12.4,6.7
				c-2,0-4.2-0.1-6.6-0.4c-0.2,2.5,0.6,4.6,2.3,6.3c1.6,1.5,3.7,2.3,6.2,2.3h9.6v2.6h-10c-7.4-0.1-11.1-3.9-11.1-11.4
				c0-3.8,1.1-6.8,3.4-9.1c2.3-2.2,5.3-3.4,9.1-3.4C521.4,177.7,524.6,179.9,524.6,184.1z M521.5,184.1c0-2.6-2.2-3.9-6.5-3.9
				c-2,0-3.9,0.6-5.9,1.8c-2.1,1.3-3.2,2.9-3.2,4.7c0,0.9,2.4,1.4,7.3,1.4C518.8,188.1,521.5,186.7,521.5,184.1z"/>
		</g>
		<g>
			<path fill="#0D2042" stroke="#0D2042" stroke-width="0.303" stroke-miterlimit="10" d="M578.5,202h-3l0-16.8c0-1.7-0.8-3-2.4-3.9
				c-1.3-0.8-2.8-1.1-4.6-1.1c-5.2,0-7.8,1.3-7.8,4V202h-3v-17.9c0-2.7-2.5-4-7.5-4c-1.7,0-3.2,0.4-4.6,1.2
				c-1.5,0.9-2.3,2.2-2.3,3.8V202h-3v-17c0-2.4,1.1-4.3,3.3-5.7c1.9-1.2,4.1-1.8,6.6-1.8c3.7,0,6.7,0.9,9.1,2.8
				c2.4-1.9,5.4-2.8,9.1-2.8c2.6,0,4.8,0.6,6.7,1.8c2.2,1.4,3.3,3.3,3.3,5.7V202z"/>
		</g>
		<g>
			<path fill="#0D2042" stroke="#0D2042" stroke-width="0.303" stroke-miterlimit="10" d="M594.2,201.6c-3.4,0-5.9-0.3-7.2-0.9
				c-2.3-1-3.5-2.9-3.5-5.8c0-2.5,1.3-4.5,3.9-5.8c2-1,4.4-1.5,7.3-1.5c2,0,4.7,0.2,8.4,0.7v-3.9c0-2.6-2.5-3.9-7.6-3.9
				c-3,0-6.4,0.4-10.1,1.2v-2.6c4.6-0.8,8.1-1.2,10.6-1.2c6.7,0,10.1,2.2,10.1,6.6v17.1H594.2z M603,199.1V191
				c-2.4-0.6-4.9-0.8-7.4-0.8c-2.4,0-4.5,0.3-6.2,0.8c-2,0.6-3,1.9-3,3.8c0,2,1,3.3,3,3.9c0.8,0.2,2.5,0.3,5.4,0.3H603z"/>
		</g>
		<g>
			<path fill="#0D2042" stroke="#0D2042" stroke-width="0.303" stroke-miterlimit="10" d="M634.9,201.7h-5.7l-16.6-10.8v10.8h-3
				v-33.9h3v18.5l16.4-8.9h5.9l-20.1,11.2L634.9,201.7z"/>
		</g>
		<g>
			<path fill="#0D2042" stroke="#0D2042" stroke-width="0.303" stroke-miterlimit="10" d="M658.5,184.1c0,4.5-4.1,6.7-12.4,6.7
				c-2,0-4.2-0.1-6.6-0.4c-0.2,2.5,0.6,4.6,2.3,6.3c1.6,1.5,3.7,2.3,6.2,2.3h9.6v2.6h-10c-7.4-0.1-11.1-3.9-11.1-11.4
				c0-3.8,1.1-6.8,3.4-9.1c2.3-2.2,5.3-3.4,9.1-3.4C655.3,177.7,658.5,179.9,658.5,184.1z M655.4,184.1c0-2.6-2.2-3.9-6.5-3.9
				c-2,0-3.9,0.6-5.9,1.8c-2.1,1.3-3.2,2.9-3.2,4.7c0,0.9,2.4,1.4,7.3,1.4C652.6,188.1,655.4,186.7,655.4,184.1z"/>
		</g>
		<g>
			<path fill="#0D2042" stroke="#0D2042" stroke-width="0.303" stroke-miterlimit="10" d="M677.1,174.7h-3v-4l3,0V174.7z
				 M677.1,202.2h-3v-24.5h3V202.2z"/>
		</g>
		<g>
			<path fill="#0D2042" stroke="#0D2042" stroke-width="0.303" stroke-miterlimit="10" d="M694.1,200.8c-3.1,0.9-5.6,1.4-7.4,1.4
				c-1.6,0-3-0.4-4.2-1.1c-1.4-0.8-2.1-2-2.1-3.6V168h3.1v9.9h10.2v3h-10.2v15.4c0,2.1,1.1,3.2,3.3,3.2c1.7,0,4.2-0.6,7.3-1.9V200.8
				z"/>
		</g>
		<g>
			<path fill="#0D2042" stroke="#0D2042" stroke-width="0.303" stroke-miterlimit="10" d="M711.7,202.2h-3v-23.8
				c1.1-0.1,2.1-0.3,3-0.4v1.1c2.2-1.3,4.7-1.9,7.6-1.9c3.4,0,6.2,0.9,8.2,2.7l-2,2c-0.3-0.3-0.7-0.6-1.2-0.9
				c-1.3-0.8-3.3-1.2-5.7-1.2c-1.9,0-3.5,0.3-4.7,0.9c-1.5,0.7-2.2,1.8-2.2,3.1V202.2z"/>
		</g>
		<g>
			<path fill="#0D2042" stroke="#0D2042" stroke-width="0.303" stroke-miterlimit="10" d="M750.8,184.1c0,4.5-4.1,6.7-12.4,6.7
				c-2,0-4.2-0.1-6.6-0.4c-0.2,2.5,0.6,4.6,2.3,6.3c1.6,1.5,3.7,2.3,6.2,2.3h9.6v2.6h-10c-7.4-0.1-11.1-3.9-11.1-11.4
				c0-3.8,1.1-6.8,3.4-9.1c2.3-2.2,5.3-3.4,9.1-3.4C747.6,177.7,750.8,179.9,750.8,184.1z M747.7,184.1c0-2.6-2.2-3.9-6.5-3.9
				c-2,0-3.9,0.6-5.9,1.8c-2.1,1.3-3.2,2.9-3.2,4.7c0,0.9,2.4,1.4,7.3,1.4C744.9,188.1,747.7,186.7,747.7,184.1z"/>
		</g>
		<g>
			<path fill="#0D2042" stroke="#0D2042" stroke-width="0.303" stroke-miterlimit="10" d="M765.5,201.6c-3.4,0-5.9-0.3-7.2-0.9
				c-2.3-1-3.5-2.9-3.5-5.8c0-2.5,1.3-4.5,3.9-5.8c2-1,4.4-1.5,7.3-1.5c1.9,0,4.8,0.2,8.4,0.7v-3.9c0-2.6-2.5-3.9-7.6-3.9
				c-3,0-6.4,0.4-10.1,1.2v-2.6c4.6-0.8,8.1-1.2,10.6-1.2c6.7,0,10.1,2.2,10.1,6.6v17.1H765.5z M774.3,199.1V191
				c-2.4-0.6-4.9-0.8-7.4-0.8c-2.4,0-4.5,0.3-6.2,0.8c-2,0.6-3,1.9-3,3.8c0,2,1,3.3,3,3.9c0.8,0.2,2.6,0.3,5.4,0.3H774.3z"/>
		</g>
		<g>
			<path fill="#0D2042" stroke="#0D2042" stroke-width="0.303" stroke-miterlimit="10" d="M784.3,202.2h-3V168h3V202.2z"/>
		</g>
		<g>
			<path fill="#0D2042" stroke="#0D2042" stroke-width="0.303" stroke-miterlimit="10" d="M798.3,192.3H795l-0.4-24h4.1L798.3,192.3
				z M795,202.6v-7.8h3.3v7.8H795z"/>
		</g>
	</g>
	<g>
		<path fill="#0066AC" d="M37.2,93.2c0,10.3-8.3,18.6-18.6,18.6C8.3,111.8,0,103.4,0,93.2c0-10.3,8.3-18.6,18.6-18.6
			C28.9,74.6,37.2,82.9,37.2,93.2z"/>
	</g>
	<g>
		<path fill="#0D2042" d="M105.1,191c0,10.3-8.3,18.6-18.6,18.6c-10.3,0-18.6-8.3-18.6-18.6c0-10.3,8.3-18.6,18.6-18.6
			C96.8,172.4,105.1,180.8,105.1,191z"/>
	</g>
	<g>
		<path fill="#0D2042" d="M151.3,127.6c0,10.3-8.3,18.6-18.6,18.6c-10.3,0-18.6-8.3-18.6-18.6c0-10.3,8.3-18.6,18.6-18.6
			C143,108.9,151.3,117.3,151.3,127.6z"/>
	</g>
	<g>
		<path fill="#0D2042" d="M197.7,64.1c0,10.3-8.3,18.6-18.6,18.6c-10.3,0-18.6-8.3-18.6-18.6c0-10.3,8.3-18.6,18.6-18.6
			C189.4,45.5,197.7,53.8,197.7,64.1z"/>
	</g>
	<g>
		<path fill="#0066AC" d="M83.5,29.6c0,10.3-8.3,18.6-18.6,18.6c-10.3,0-18.6-8.3-18.6-18.6c0-10.3,8.3-18.6,18.6-18.6
			C75.1,11,83.5,19.3,83.5,29.6z"/>
	</g>
	<path fill="#0D2042" d="M607.8,152.9c0-5.4,0-81.6,0-81.6s0.8-19.5,21.7-19.5c20.9,0,74.6,0.3,91.6,0c17.1-0.3,19.3,19,19.3,19
		s0,75.4,0,82.2s-6,4.9-6,4.9h-35.8c0,0-7.2,1.6-7.3-5.7c-0.1-7.3-0.8-78.1-0.8-78.1s-2.2-7.9-7.6-7.9c-5.4,0-7.6-0.3-16.8,0
		c-9.2,0.3-8.7,8.1-8.7,8.1s-0.3,74,0,78.6c0.3,4.6-4.3,4.9-4.3,4.9h-38.8C614.3,157.8,607.8,158.4,607.8,152.9z"/>
	<g>
		<path fill="#0D2042" d="M799.8,144.3c0,14.3-11.6,13.8-25.9,13.8l0,0c-14.3,0-25.9,0.5-25.9-13.8V68.1c0-14.3,11.6-16.3,25.9-16.3
			l0,0c14.3,0,25.9-0.5,25.9,13.8V144.3z"/>
	</g>
	<g>
		<path fill="#0D2042" d="M374.9,140.5V68.1c0,0-0.3-16.3-18.2-16.3c-17.9,0-71.3,0-91.6,0c-20.3,0-22.5,20.9-22.5,20.9v62.9
			c0,0-3,21.4,23.6,21.7c26.6,0.3,67.5,0,89.8,0C378.1,157.3,374.9,140.5,374.9,140.5z M326.6,127.7c0,9.4-7.7,17.1-17.1,17.1
			s-17.1-7.6-17.1-17.1V81.1c0-9.4,7.6-17.1,17.1-17.1s17.1,7.6,17.1,17.1V127.7z"/>
	</g>
	<g>
		<path fill="#0D2042" d="M386.4,152.6v-81c0,0,3.5-19.3,20.1-19.3c16.6,0,73.4,0,78.5,0c5.1,0,7.2,5.1,7.2,5.1s1.1-5.1,7.6-5.1
			c6.5,0,63,0,77.7,0c14.7,0,16.5,19.9,16.5,19.9v80.4c0,0,0.6,4.7-3,4.7c-16.5,0.1-28.9,0.2-37.8,0c-4.7,0-4.4-3.6-4.3-4.4
			c0-0.1,0-0.3,0-0.4V74.7c0,0,0.8-7.4-8.4-7.4c-7.9,0-5.5,0-15.5,0c-7.5-0.2-8.2,7.4-8.2,7.4v78.9c0,0.5-0.1,1.1-0.4,1.5
			c-0.4,0.6-1.1,1.4-2.3,1.4c-1.9,0-39.9,0-43.4,0c-3.4,0-3.1-3.2-3.1-3.2l0-78c0,0-0.8-7.5-8.3-7.4c-7.5,0-10.9,0.1-17.3,0.1
			c-6.4,0-7.2,7.6-7.2,7.6v77.1c0,0.2,0,0.5,0.1,0.7c0.2,0.8,0.5,3.2-2.4,3.2c-3.5,0-35.8,0-41.4,0
			C385.8,156.6,386.4,152.6,386.4,152.6z"/>
	</g>
</g>
</svg>
