<?xml version="1.0" encoding="utf-8"?>
<!-- Generator: Adobe Illustrator 16.0.0, SVG Export Plug-In . SVG Version: 6.00 Build 0)  -->
<!DOCTYPE svg PUBLIC "-//W3C//DTD SVG 1.1//EN" "http://www.w3.org/Graphics/SVG/1.1/DTD/svg11.dtd">
<svg version="1.1" id="Capa_1" xmlns="http://www.w3.org/2000/svg" xmlns:xlink="http://www.w3.org/1999/xlink" x="0px" y="0px"
	 width="479.333px" height="90px" viewBox="0 0 479.333 90" enable-background="new 0 0 479.333 90" xml:space="preserve">
<g>
	<path fill="#FFFFFF" d="M120.309,3.679C123.432,6.132,125,9.268,125,13.067c0,1.104-0.125,2.211-0.364,3.315l-8.651,32.767
		c-1.227,4.526-4.262,8.404-9.1,11.588c-4.847,3.19-10.091,4.78-15.726,4.78H53.078c-1.838,0-3.002,0.747-3.494,2.228l-5.149,20.063
		C43.942,89.261,42.776,90,40.933,90H5.744c-1.599,0-2.397-0.543-2.397-1.65c0-0.255,0-0.433,0-0.555l20.617-77.303
		c0.121-0.241,0.182-0.547,0.182-0.919c0-1.471-1.074-3.185-3.224-5.155c-2.143-1.968-3.22-3.135-3.22-3.493
		C17.701,0.318,18.253,0,19.358,0h89.075C113.222,0,117.177,1.23,120.309,3.679z M73.466,55.039l11.783-44.547
		c0.121-0.12,0.186-0.304,0.186-0.547c0-1.104-0.798-1.664-2.387-1.664H68.364c-1.962,0-3.125,0.741-3.492,2.224L53.089,55.039
		c0,0.139-0.049,0.318-0.142,0.574c0,1.078,0.796,1.638,2.381,1.638h14.658C71.938,57.251,73.102,56.512,73.466,55.039z"/>
	<path fill="#FFFFFF" d="M241.863,16.382l-8.639,32.767c-0.987,3.68-3.624,7.025-7.922,10.021
		c-4.288,3.003-8.899,4.944-13.799,5.801c0.118,0.624,1.84,4.639,5.158,12.06c3.313,7.413,4.963,11.244,4.963,11.504
		c0,0.986-0.736,1.466-2.197,1.466h-35.139c-1.96,0-3.185-0.667-3.679-2.027l-7.173-20.427c-0.615-1.349-1.714-2.029-3.308-2.029
		c-1.715,0-2.819,0.747-3.312,2.228l-5.151,20.063C161.174,89.261,160.009,90,158.17,90h-35.193c-1.604,0-2.398-0.543-2.398-1.65
		c0-0.255,0-0.433,0-0.555l20.618-77.303c0-0.241,0-0.547,0-0.919c0-1.471-1.045-3.185-3.133-5.155
		c-2.085-1.968-3.125-3.135-3.125-3.493c0-0.606,0.548-0.925,1.657-0.925h89.075c4.79,0,8.744,1.23,11.877,3.679
		c3.13,2.453,4.693,5.589,4.693,9.388C242.242,14.17,242.124,15.278,241.863,16.382z M187.227,57.251
		c1.948,0,3.111-0.739,3.476-2.212l11.779-44.547c0.122-0.12,0.19-0.304,0.19-0.547c0-1.104-0.805-1.664-2.393-1.664h-14.683
		c-1.956,0-3.125,0.741-3.488,2.224l-11.778,44.534c0,0.139-0.047,0.318-0.151,0.574c0,1.078,0.792,1.638,2.383,1.638H187.227z"/>
	<path fill="#FFFFFF" d="M381.07,40.395c2.645-2.441,7.649-3.329,9.185-3.449c-6.813-3.827-11.516-11.112-11.516-19.357
		c0-0.064,0.004-0.126,0.006-0.19c-0.002-0.034-0.006-0.067-0.006-0.102c0-0.102,0.014-0.203,0.017-0.305
		c0.009-0.342,0.025-0.682,0.051-1.02c0.015-0.177,0.021-0.357,0.041-0.533c0.623-6.23,3.907-11.768,8.676-15.439h-32.279
		c-1.965,0-3.373,0.799-4.234,2.391l-35.707,64.79c-0.367,0.627-0.737,0.927-1.104,0.927c-0.368,0-0.548-0.3-0.548-0.927
		L301.496,2.213C301.254,0.741,300.213,0,298.363,0h-45.447c-1.103,0-1.66,0.318-1.66,0.925c0,0.357,1.068,1.525,3.23,3.493
		c2.136,1.97,3.211,3.684,3.211,5.155c0,0.372-0.062,0.678-0.188,0.919l-20.605,77.303v0.555c0,1.107,0.796,1.65,2.394,1.65h14.724
		c1.838,0,3.003-0.739,3.488-2.205l10.676-41.959c0.117-0.247,0.306-0.547,0.548-0.926c0.251,0.119,0.374,0.425,0.374,0.926
		l7.727,41.959c0.244,1.466,1.354,2.205,3.317,2.205h38.838c1.957,0,3.366-0.739,4.227-2.205l28.89-52.816
		c0.248-0.241,0.492-0.559,0.75-0.927v1.106l-13.624,52.637v0.555c0,1.107,0.735,1.65,2.213,1.65h17.573
		c-0.167-0.332-0.435-0.921-0.525-1.278c-0.228-0.897-0.641-2.22-0.267-3.827l3.557-11.342c0.982-3.506,2.324-7.281,3.74-10.814
		c0.883-2.197,1.828-4.182,2.874-6.311c0.045-0.241,1.217-2.273,1.364-2.526c1.575-2.709,2.47-4.041,4.415-6.62
		C376.135,44.678,378.549,42.514,381.07,40.395"/>
	<path fill-rule="evenodd" clip-rule="evenodd" fill="#FFFFFF" d="M438.845,39.155c17.943,0,27.189,15.633,32.76,32.761l4.22,13.462
		c0.816,2.444-2.04,4.622-4.489,4.622h-9.786c1.086-1.905,1.358-3.941,0.679-6.12l-4.353-13.592
		c-3.94-12.103-9.922-24.474-19.981-31.133C438.166,39.155,438.438,39.155,438.845,39.155L438.845,39.155z"/>
	<g>
		<path fill-rule="evenodd" clip-rule="evenodd" fill="#FFFFFF" d="M364.927,87.551h-0.137l0,0
			c-0.271-0.677-0.407-1.223-0.271-1.899l0,0l0.136-0.138l0,0l0,0l0,0l0,0v-0.136l4.35-13.462l0.138-0.407v-0.405h0.138l0.136-0.411
			v-0.404l0.133-0.136l0.136-0.407v-0.271l0.137-0.136l0.136-0.414v-0.271l0.136-0.136l0.136-0.407
			c5.576-15.631,14.819-28.955,31.407-28.955l0,0c18.081,0,27.326,15.633,32.762,32.761l4.351,13.462
			C439.43,87.822,436.71,90,434.263,90h-37.248h-27.872"/>
		<path fill-rule="evenodd" clip-rule="evenodd" fill="#FFFFFF" d="M434.222,90h-27.871h-37.249c-2.448,0-5.166-2.178-4.485-4.622
			l4.351-13.462c5.437-17.128,14.681-32.761,32.762-32.761l0,0c16.587,0,25.831,13.324,31.406,28.955l0.137,0.407l0.135,0.136v0.271
			l0.137,0.414l0.136,0.136v0.271l0.137,0.407l0.133,0.136v0.404l0.136,0.411h0.138v0.405l0.136,0.407l4.351,13.462v0.136l0,0l0,0
			l0,0l0,0l0.137,0.138l0,0c0.136,0.677,0,1.223-0.273,1.899l0,0h-0.134"/>
	</g>
	<path fill-rule="evenodd" clip-rule="evenodd" fill="#FFFFFF" d="M438.845,0c9.517,0,17.262,7.749,17.262,17.402
		c0,9.514-7.745,17.266-17.262,17.266c-1.359,0-2.584-0.133-3.808-0.408c4.757-4.077,7.748-10.196,7.748-16.858
		c0-6.796-2.991-12.779-7.748-16.992C436.261,0.137,437.486,0,438.845,0L438.845,0z"/>
	<path fill-rule="evenodd" clip-rule="evenodd" fill="#FFFFFF" d="M420.22,39.155c18.081,0,27.325,15.633,32.761,32.761
		l4.355,13.462c0.675,2.444-2.042,4.622-4.625,4.622h-9.65c0.948-1.905,1.223-3.941,0.541-6.12l-4.35-13.592
		c-3.809-12.103-9.926-24.474-19.984-31.133C419.538,39.155,419.945,39.155,420.22,39.155L420.22,39.155z"/>
	<path fill-rule="evenodd" clip-rule="evenodd" fill="#FFFFFF" d="M420.22,0c9.651,0,17.399,7.749,17.399,17.402
		c0,9.514-7.748,17.266-17.399,17.266c-1.226,0-2.582-0.133-3.809-0.408c4.758-4.077,7.752-10.196,7.752-16.858
		c0-6.796-2.994-12.779-7.752-16.992C417.638,0.137,418.995,0,420.22,0L420.22,0z"/>
	<path fill-rule="evenodd" clip-rule="evenodd" fill="#FFFFFF" d="M401.729,0c9.518,0,17.266,7.749,17.266,17.402
		c0,9.514-7.748,17.266-17.266,17.266c-9.652,0-17.401-7.751-17.401-17.266C384.328,7.749,392.077,0,401.729,0L401.729,0z"/>
</g>
</svg>
