<?xml version="1.0" encoding="utf-8"?>
<!-- Generator: Adobe Illustrator 16.0.0, SVG Export Plug-In . SVG Version: 6.00 Build 0)  -->
<!DOCTYPE svg PUBLIC "-//W3C//DTD SVG 1.1//EN" "http://www.w3.org/Graphics/SVG/1.1/DTD/svg11.dtd">
<svg version="1.1" id="Capa_1" xmlns="http://www.w3.org/2000/svg" xmlns:xlink="http://www.w3.org/1999/xlink" x="0px" y="0px"
	 width="479.333px" height="90px" viewBox="0 0 479.333 90" enable-background="new 0 0 479.333 90" xml:space="preserve">
<g>
	<path fill="#FFFFFF" d="M120.309,3.679C123.432,6.132,125,9.268,125,13.067c0,1.104-0.125,2.211-0.364,3.315l-8.651,32.767
		c-1.227,4.526-4.262,8.404-9.1,11.588c-4.847,3.19-10.091,4.781-15.726,4.781H53.078c-1.838,0-3.002,0.746-3.494,2.228
		l-5.149,20.063C43.942,89.261,42.776,90,40.933,90H5.744c-1.599,0-2.397-0.543-2.397-1.65c0-0.255,0-0.433,0-0.555l20.617-77.303
		c0.121-0.241,0.182-0.547,0.182-0.919c0-1.471-1.074-3.185-3.224-5.155c-2.143-1.968-3.22-3.135-3.22-3.493
		C17.701,0.318,18.253,0,19.358,0h89.075C113.222,0,117.177,1.23,120.309,3.679z M73.466,55.039l11.783-44.547
		c0.121-0.12,0.186-0.304,0.186-0.547c0-1.104-0.798-1.664-2.387-1.664H68.364c-1.962,0-3.125,0.741-3.492,2.224L53.089,55.039
		c0,0.139-0.049,0.318-0.142,0.574c0,1.078,0.796,1.638,2.381,1.638h14.658C71.938,57.251,73.102,56.512,73.466,55.039z"/>
	<path fill="#FFFFFF" d="M241.863,16.382l-8.639,32.767c-0.987,3.681-3.624,7.025-7.922,10.021
		c-4.288,3.003-8.899,4.944-13.799,5.801c0.118,0.624,1.84,4.639,5.158,12.061c3.313,7.412,4.963,11.244,4.963,11.504
		c0,0.986-0.736,1.466-2.197,1.466h-35.139c-1.96,0-3.185-0.667-3.679-2.026l-7.173-20.428c-0.615-1.349-1.714-2.029-3.308-2.029
		c-1.715,0-2.819,0.748-3.312,2.229l-5.151,20.063C161.174,89.261,160.009,90,158.17,90h-35.193c-1.604,0-2.398-0.543-2.398-1.65
		c0-0.255,0-0.433,0-0.555l20.618-77.303c0-0.241,0-0.547,0-0.919c0-1.471-1.045-3.185-3.133-5.155
		c-2.085-1.968-3.125-3.135-3.125-3.493c0-0.606,0.548-0.925,1.657-0.925h89.075c4.79,0,8.744,1.23,11.877,3.679
		c3.13,2.453,4.693,5.589,4.693,9.388C242.243,14.17,242.124,15.278,241.863,16.382z M187.227,57.251
		c1.948,0,3.111-0.739,3.476-2.212l11.779-44.547c0.122-0.12,0.19-0.304,0.19-0.547c0-1.104-0.805-1.664-2.393-1.664h-14.683
		c-1.956,0-3.125,0.741-3.488,2.224L170.33,55.039c0,0.139-0.047,0.318-0.151,0.574c0,1.078,0.792,1.638,2.383,1.638H187.227z"/>
	<path fill="#FFFFFF" d="M381.071,40.395c2.645-2.441,7.648-3.329,9.184-3.449c-6.813-3.827-11.516-11.112-11.516-19.357
		c0-0.064,0.004-0.126,0.006-0.19c-0.002-0.034-0.006-0.067-0.006-0.102c0-0.102,0.014-0.203,0.018-0.305
		c0.008-0.342,0.025-0.682,0.051-1.02c0.016-0.177,0.021-0.357,0.041-0.533c0.623-6.23,3.906-11.768,8.676-15.439h-32.279
		c-1.965,0-3.373,0.799-4.234,2.391l-35.707,64.791c-0.367,0.627-0.736,0.926-1.104,0.926s-0.547-0.299-0.547-0.926L301.497,2.213
		C301.254,0.741,300.213,0,298.363,0h-45.446c-1.104,0-1.66,0.318-1.66,0.925c0,0.357,1.068,1.525,3.229,3.493
		c2.136,1.97,3.212,3.684,3.212,5.155c0,0.372-0.063,0.678-0.189,0.919l-20.604,77.303v0.555c0,1.107,0.796,1.65,2.394,1.65h14.724
		c1.838,0,3.003-0.739,3.488-2.205l10.676-41.959c0.117-0.247,0.307-0.547,0.548-0.926c0.251,0.119,0.374,0.425,0.374,0.926
		l7.727,41.959c0.244,1.466,1.354,2.205,3.317,2.205h38.839c1.957,0,3.365-0.739,4.227-2.205l28.891-52.816
		c0.248-0.241,0.49-0.559,0.75-0.927v1.106l-13.625,52.637v0.555c0,1.107,0.734,1.65,2.213,1.65h17.572
		c-0.166-0.332-0.434-0.921-0.523-1.277c-0.229-0.897-0.641-2.221-0.268-3.828l3.557-11.342c0.982-3.506,2.324-7.281,3.74-10.813
		c0.883-2.197,1.828-4.183,2.875-6.312c0.045-0.24,1.217-2.273,1.363-2.525c1.574-2.709,2.471-4.041,4.414-6.62
		C376.135,44.678,378.549,42.514,381.071,40.395"/>
	<path fill="#FFFFFF" d="M438.844,39.155c17.943,0,27.189,15.633,32.762,32.761l4.219,13.462c0.816,2.444-2.039,4.622-4.488,4.622
		h-9.787c1.086-1.905,1.359-3.941,0.68-6.12l-4.354-13.592c-3.939-12.103-9.922-24.474-19.98-31.133
		C438.167,39.155,438.438,39.155,438.844,39.155L438.844,39.155z"/>
	<g>
		<path fill="#FFFFFF" d="M364.926,87.551h-0.137l0,0c-0.271-0.677-0.406-1.223-0.271-1.898l0,0l0.137-0.139l0,0l0,0l0,0l0,0v-0.136
			l4.35-13.462l0.139-0.407v-0.405h0.139l0.135-0.41v-0.404l0.133-0.137l0.137-0.406v-0.271l0.137-0.136l0.137-0.414v-0.271
			l0.135-0.137l0.137-0.406c5.576-15.631,14.818-28.955,31.406-28.955l0,0c18.082,0,27.326,15.633,32.764,32.761l4.35,13.462
			c0.68,2.443-2.041,4.621-4.488,4.621h-37.248h-27.871"/>
		<path fill="#FFFFFF" d="M434.221,90H406.35h-37.248c-2.447,0-5.166-2.178-4.484-4.622l4.35-13.462
			c5.438-17.128,14.682-32.761,32.764-32.761l0,0c16.586,0,25.83,13.323,31.404,28.954l0.139,0.408l0.135,0.135v0.271l0.137,0.414
			l0.135,0.137v0.271l0.139,0.407l0.133,0.136v0.403l0.135,0.412h0.139v0.404l0.137,0.407l4.35,13.462v0.137l0,0l0,0l0,0l0,0
			l0.137,0.137l0,0c0.137,0.678,0,1.224-0.271,1.899l0,0h-0.135"/>
	</g>
	<path fill="#FFFFFF" d="M438.844,0c9.518,0,17.264,7.749,17.264,17.402c0,9.514-7.746,17.266-17.264,17.266
		c-1.357,0-2.584-0.133-3.807-0.408c4.756-4.077,7.748-10.196,7.748-16.858c0-6.796-2.992-12.779-7.748-16.992
		C436.26,0.137,437.487,0,438.844,0L438.844,0z"/>
	<path fill="#FFFFFF" d="M420.219,39.155c18.082,0,27.326,15.633,32.762,32.761l4.355,13.462c0.674,2.444-2.043,4.622-4.625,4.622
		h-9.65c0.947-1.905,1.223-3.941,0.541-6.12l-4.35-13.592c-3.809-12.103-9.926-24.474-19.984-31.133
		C419.538,39.155,419.946,39.155,420.219,39.155L420.219,39.155z"/>
	<path fill="#FFFFFF" d="M420.219,0c9.652,0,17.4,7.749,17.4,17.402c0,9.514-7.748,17.266-17.4,17.266
		c-1.225,0-2.582-0.133-3.809-0.408c4.758-4.077,7.752-10.196,7.752-16.858c0-6.796-2.994-12.779-7.752-16.992
		C417.637,0.137,418.995,0,420.219,0L420.219,0z"/>
	<path fill="#FFFFFF" d="M401.729,0c9.518,0,17.266,7.749,17.266,17.402c0,9.514-7.748,17.266-17.266,17.266
		c-9.652,0-17.4-7.751-17.4-17.266C384.329,7.749,392.077,0,401.729,0L401.729,0z"/>
</g>
<text transform="matrix(1.3566 0 0 1 378.2544 90)" fill="#2F4350" font-family="'ErasITC-Bold'" font-size="15.75">Beta</text>
</svg>
