<?xml version="1.0" encoding="utf-8"?>
<!-- Generator: Adobe Illustrator 16.0.0, SVG Export Plug-In . SVG Version: 6.00 Build 0)  -->
<!DOCTYPE svg PUBLIC "-//W3C//DTD SVG 1.1//EN" "http://www.w3.org/Graphics/SVG/1.1/DTD/svg11.dtd">
<svg version="1.1" id="Capa_1" xmlns="http://www.w3.org/2000/svg" xmlns:xlink="http://www.w3.org/1999/xlink" x="0px" y="0px"
	 width="90px" height="90px" viewBox="0 0 90 90" enable-background="new 0 0 90 90" xml:space="preserve">
<g>
	<g>
		<path fill-rule="evenodd" clip-rule="evenodd" fill="#FFFFFF" d="M59.988,29.401c13.129,0,19.893,11.437,23.969,23.969
			l3.086,9.849c0.598,1.789-1.492,3.382-3.283,3.382H76.6c0.795-1.395,0.994-2.884,0.496-4.479l-3.184-9.943
			c-2.883-8.854-7.26-17.905-14.619-22.777C59.492,29.401,59.691,29.401,59.988,29.401L59.988,29.401z M32.833,29.401
			c12.136,0,18.899,9.746,22.978,21.183l0.1,0.299l0.1,0.1v0.197l0.1,0.304l0.1,0.099v0.199l0.1,0.299l0.098,0.099v0.296l0.1,0.301
			h0.1v0.296l0.1,0.299l3.184,9.849v0.099l0,0l0,0l0,0l0,0l0.1,0.101l0,0c0.1,0.496,0,0.896-0.199,1.391l0,0h-0.098l-0.896,1.792
			h-2.189H36.215H8.962c-1.791,0-3.78-1.593-3.282-3.382l3.182-9.849C12.84,40.838,19.604,29.401,32.833,29.401L32.833,29.401z
			 M59.988,0.754c6.963,0,12.631,5.669,12.631,12.731c0,6.961-5.668,12.633-12.631,12.633c-0.994,0-1.891-0.097-2.785-0.298
			c3.48-2.983,5.668-7.46,5.668-12.334c0-4.972-2.188-9.349-5.668-12.432C58.098,0.854,58.994,0.754,59.988,0.754L59.988,0.754z
			 M46.361,29.401c13.23,0,19.992,11.437,23.969,23.969l3.188,9.849c0.494,1.789-1.494,3.382-3.383,3.382h-7.063
			c0.695-1.395,0.895-2.884,0.396-4.479l-3.182-9.943c-2.787-8.854-7.262-17.905-14.622-22.777
			C45.863,29.401,46.16,29.401,46.361,29.401L46.361,29.401z M46.361,0.754c7.063,0,12.73,5.669,12.73,12.731
			c0,6.961-5.668,12.633-12.73,12.633c-0.896,0-1.889-0.097-2.785-0.298c3.48-2.983,5.67-7.46,5.67-12.334
			c0-4.972-2.189-9.349-5.67-12.432C44.473,0.854,45.465,0.754,46.361,0.754L46.361,0.754z M32.833,0.754
			c6.963,0,12.632,5.669,12.632,12.731c0,6.961-5.668,12.633-12.632,12.633c-7.061,0-12.731-5.672-12.731-12.633
			C20.102,6.423,25.772,0.754,32.833,0.754L32.833,0.754z"/>
		<g>
			<path fill="#FFFFFF" d="M26.97,70.454c0.68,0.534,1.021,1.217,1.021,2.044c0,0.24-0.027,0.481-0.08,0.722l-1.883,7.134
				c-0.267,0.985-0.928,1.829-1.981,2.522c-1.056,0.694-2.197,1.041-3.424,1.041h-8.291c-0.4,0-0.654,0.162-0.761,0.484
				l-1.121,4.368c-0.107,0.316-0.361,0.478-0.762,0.478H2.028c-0.348,0-0.522-0.118-0.522-0.359c0-0.056,0-0.095,0-0.121
				l4.488-16.829c0.026-0.053,0.04-0.119,0.04-0.2c0-0.32-0.234-0.693-0.702-1.122c-0.467-0.429-0.701-0.683-0.701-0.761
				c0-0.132,0.12-0.201,0.361-0.201h19.393C25.427,69.653,26.289,69.921,26.97,70.454z M16.772,81.636l2.565-9.698
				c0.026-0.026,0.041-0.066,0.041-0.119c0-0.24-0.174-0.362-0.52-0.362h-3.196c-0.427,0-0.68,0.161-0.76,0.484l-2.565,9.695
				c0,0.03-0.01,0.069-0.031,0.125c0,0.234,0.174,0.356,0.519,0.356h3.191C16.439,82.117,16.692,81.956,16.772,81.636z"/>
			<path fill="#FFFFFF" d="M53.434,73.22l-1.881,7.134c-0.215,0.801-0.789,1.529-1.725,2.182c-0.934,0.653-1.938,1.076-3.004,1.263
				c0.025,0.136,0.4,1.01,1.123,2.625c0.721,1.614,1.08,2.448,1.08,2.505c0,0.215-0.16,0.319-0.479,0.319h-7.649
				c-0.427,0-0.694-0.146-0.801-0.441l-1.561-4.447c-0.135-0.293-0.374-0.441-0.72-0.441c-0.374,0-0.614,0.162-0.722,0.484
				l-1.121,4.368c-0.107,0.316-0.361,0.478-0.761,0.478h-7.662c-0.349,0-0.522-0.118-0.522-0.359c0-0.056,0-0.095,0-0.121
				l4.488-16.829c0-0.053,0-0.119,0-0.2c0-0.32-0.228-0.693-0.682-1.122s-0.681-0.683-0.681-0.761c0-0.132,0.119-0.201,0.361-0.201
				h19.392c1.043,0,1.904,0.268,2.586,0.801c0.682,0.534,1.021,1.217,1.021,2.044C53.516,72.738,53.49,72.979,53.434,73.22z
				 M41.539,82.117c0.424,0,0.677-0.161,0.756-0.481l2.564-9.698c0.027-0.026,0.042-0.066,0.042-0.119
				c0-0.24-0.175-0.362-0.521-0.362h-3.196c-0.426,0-0.68,0.161-0.759,0.484l-2.564,9.695c0,0.03-0.01,0.069-0.033,0.125
				c0,0.234,0.173,0.356,0.519,0.356H41.539z"/>
			<path fill="#FFFFFF" d="M75.113,89.247c-0.322,0-0.482-0.118-0.482-0.359c0-0.056,0-0.095,0-0.121l2.967-11.459
				c0-0.053,0-0.102,0-0.143c0-0.039,0-0.071,0-0.099c-0.057,0.08-0.109,0.149-0.164,0.202l-6.289,11.498
				c-0.188,0.319-0.494,0.48-0.92,0.48H61.77c-0.428,0-0.67-0.161-0.723-0.48l-1.682-9.135c0-0.109-0.027-0.176-0.082-0.201
				c-0.053,0.082-0.094,0.147-0.119,0.201l-2.324,9.135c-0.105,0.319-0.359,0.48-0.76,0.48h-3.205c-0.348,0-0.521-0.118-0.521-0.359
				c0-0.056,0-0.095,0-0.121l4.486-16.829c0.027-0.053,0.041-0.119,0.041-0.2c0-0.32-0.234-0.693-0.699-1.122
				c-0.471-0.429-0.703-0.683-0.703-0.761c0-0.132,0.121-0.201,0.361-0.201h9.895c0.402,0,0.629,0.161,0.682,0.481l2.646,14.145
				c0,0.136,0.039,0.201,0.119,0.201s0.16-0.065,0.24-0.201l7.773-14.105c0.188-0.347,0.494-0.521,0.922-0.521h9.855
				c0.346,0,0.521,0.135,0.521,0.401c0,0.027-0.014,0.066-0.041,0.119l-4.928,18.593c-0.078,0.319-0.332,0.48-0.762,0.48H75.113z"/>
		</g>
	</g>
</g>
</svg>
