<?xml version="1.0" encoding="utf-8"?>
<!-- Generator: Adobe Illustrator 16.0.0, SVG Export Plug-In . SVG Version: 6.00 Build 0)  -->
<!DOCTYPE svg PUBLIC "-//W3C//DTD SVG 1.1//EN" "http://www.w3.org/Graphics/SVG/1.1/DTD/svg11.dtd">
<svg version="1.1" id="Capa_1" xmlns="http://www.w3.org/2000/svg" xmlns:xlink="http://www.w3.org/1999/xlink" x="0px" y="0px"
	 width="582.001px" height="38px" viewBox="0 0 582.001 38" enable-background="new 0 0 582.001 38" xml:space="preserve">
<g>
	<path fill="#FFFFFF" d="M29.53,12.144c0.574,0.45,0.86,1.023,0.86,1.72c0,0.203-0.022,0.405-0.067,0.607l-1.584,6.004
		c-0.225,0.833-0.782,1.541-1.669,2.125c-0.888,0.586-1.849,0.878-2.883,0.878h-6.979c-0.337,0-0.551,0.135-0.64,0.404l-0.944,3.678
		c-0.09,0.27-0.304,0.402-0.641,0.402h-6.45c-0.293,0-0.439-0.1-0.439-0.303c0-0.045,0-0.078,0-0.102l3.778-14.167
		c0.022-0.045,0.034-0.102,0.034-0.169c0-0.27-0.197-0.584-0.59-0.944c-0.394-0.359-0.59-0.573-0.59-0.641
		c0-0.112,0.102-0.168,0.304-0.168h16.326C28.232,11.469,28.957,11.694,29.53,12.144z M20.946,21.555l2.159-8.163
		c0.022-0.022,0.034-0.056,0.034-0.102c0-0.202-0.146-0.304-0.438-0.304H20.01c-0.359,0-0.572,0.137-0.639,0.408l-2.16,8.162
		c0,0.023-0.009,0.058-0.027,0.104c0,0.199,0.146,0.299,0.437,0.299h2.687C20.666,21.959,20.878,21.825,20.946,21.555z"/>
	<path fill="#FFFFFF" d="M51.81,14.471l-1.585,6.004c-0.18,0.675-0.664,1.288-1.451,1.839s-1.63,0.905-2.53,1.063
		c0.022,0.112,0.337,0.849,0.945,2.209c0.607,1.362,0.911,2.063,0.911,2.108c0,0.182-0.135,0.27-0.404,0.27h-6.438
		c-0.359,0-0.584-0.123-0.674-0.369l-1.314-3.746c-0.113-0.247-0.314-0.37-0.606-0.37c-0.314,0-0.517,0.135-0.606,0.404
		l-0.944,3.678c-0.09,0.27-0.304,0.402-0.641,0.402h-6.45c-0.293,0-0.439-0.1-0.439-0.303c0-0.045,0-0.078,0-0.102l3.778-14.167
		c0-0.045,0-0.102,0-0.169c0-0.27-0.191-0.584-0.573-0.944c-0.383-0.359-0.574-0.573-0.574-0.641c0-0.112,0.102-0.168,0.304-0.168
		h16.326c0.877,0,1.602,0.225,2.175,0.675c0.574,0.45,0.86,1.023,0.86,1.72C51.877,14.067,51.855,14.269,51.81,14.471z
		 M41.794,21.959c0.358,0,0.571-0.135,0.638-0.404l2.159-8.163c0.022-0.022,0.034-0.056,0.034-0.102
		c0-0.202-0.146-0.304-0.438-0.304h-2.691c-0.359,0-0.572,0.137-0.639,0.408l-2.16,8.162c0,0.023-0.009,0.058-0.027,0.104
		c0,0.199,0.146,0.299,0.437,0.299H41.794z"/>
	<path fill="#FFFFFF" d="M71.728,12.144c0.573,0.45,0.86,1.023,0.86,1.72c0,0.203-0.022,0.405-0.067,0.607l-2.799,10.49
		c-0.225,0.833-0.776,1.541-1.653,2.125c-0.877,0.586-1.844,0.877-2.901,0.877H53.934c-0.877,0-1.602-0.219-2.175-0.656
		c-0.574-0.439-0.86-1.006-0.86-1.704c0-0.203,0.034-0.416,0.101-0.642l2.766-10.49c0.225-0.81,0.776-1.512,1.653-2.107
		c0.877-0.596,1.844-0.895,2.901-0.895h11.232C70.429,11.469,71.154,11.694,71.728,12.144z M61.287,26.48
		c0.359,0,0.573-0.146,0.641-0.439l3.374-12.649c0-0.022,0-0.056,0-0.102c0-0.202-0.135-0.304-0.404-0.304h-2.693
		c-0.359,0-0.572,0.137-0.639,0.407l-3.374,12.649c0,0.045-0.003,0.078-0.007,0.102c0,0.223,0.146,0.336,0.438,0.336H61.287z"/>
	<path fill="#FFFFFF" d="M93.535,11.908l-3.474,13.054c-0.225,0.833-0.776,1.541-1.653,2.125c-0.877,0.586-1.844,0.877-2.901,0.877
		H74.274c-0.877,0-1.602-0.219-2.175-0.656c-0.574-0.439-0.86-1.006-0.86-1.704c0-0.203,0.034-0.416,0.101-0.642l1.08-4.048
		c0.067-0.292,0.281-0.438,0.641-0.438h6.409c0.292,0,0.438,0.113,0.438,0.338c0,0.383-0.231,1.254-0.691,2.614
		c-0.461,1.36-0.691,2.266-0.691,2.715c0,0.225,0.146,0.338,0.438,0.338h2.665c0.359,0,0.574-0.146,0.641-0.439l3.373-12.649
		c0.022-0.045,0.034-0.102,0.034-0.169c0-0.27-0.197-0.584-0.59-0.944c-0.394-0.359-0.59-0.573-0.59-0.641
		c0-0.112,0.101-0.168,0.304-0.168h8.332c0.27,0,0.405,0.113,0.405,0.337C93.535,11.829,93.535,11.863,93.535,11.908z"/>
	<path fill="#FFFFFF" d="M113.875,11.469c0.292,0,0.438,0.113,0.438,0.337c0,0.788-0.281,1.18-0.843,1.18h-8.298
		c-0.36,0-0.574,0.136-0.641,0.405c-0.922,3.463-1.383,5.217-1.383,5.262c0,0.226,0.146,0.338,0.438,0.338h8.298
		c0.18,0,0.27,0.033,0.27,0.101c0,0.046-0.067,0.102-0.203,0.169l-1.349,0.911c-0.292,0.202-0.619,0.303-0.978,0.303h-6.443
		c-0.36,0-0.573,0.146-0.641,0.438c-0.922,3.464-1.383,5.208-1.383,5.229c0,0.225,0.146,0.338,0.438,0.338h8.298
		c0.18,0,0.27,0.033,0.27,0.1c0,0.047-0.067,0.113-0.203,0.203l-1.349,0.877c-0.292,0.203-0.607,0.303-0.944,0.303H93.704
		c-0.292,0-0.438-0.1-0.438-0.303c0-0.045,0-0.078,0-0.102l3.778-14.167c0-0.045,0-0.102,0-0.169c0-0.27-0.191-0.584-0.573-0.944
		c-0.383-0.359-0.574-0.573-0.574-0.641c0-0.112,0.102-0.168,0.304-0.168H113.875z"/>
	<path fill="#FFFFFF" d="M125.513,18.992c-0.293,0-0.438-0.112-0.438-0.338c0-0.449,0.23-1.36,0.691-2.732
		c0.46-1.371,0.691-2.248,0.691-2.631c0-0.202-0.135-0.304-0.404-0.304h-2.692c-0.359,0-0.572,0.137-0.639,0.408l-3.376,12.648
		c0,0.045-0.002,0.078-0.006,0.1c0,0.225,0.146,0.338,0.438,0.338h2.665c0.359,0,0.574-0.146,0.641-0.439l1.383-5.127
		c0.067-0.292,0.281-0.438,0.641-0.438h6.442c0.292,0,0.438,0.113,0.438,0.338c0,0.045-0.371,1.428-1.113,4.148
		c-0.225,0.833-0.776,1.541-1.653,2.125c-0.877,0.586-1.844,0.877-2.901,0.877h-11.233c-0.877,0-1.602-0.219-2.175-0.656
		c-0.574-0.439-0.86-1.006-0.86-1.704c0-0.203,0.034-0.416,0.101-0.642l2.766-10.49c0.225-0.81,0.776-1.512,1.653-2.107
		c0.877-0.596,1.844-0.895,2.901-0.895h11.232c0.877,0,1.603,0.225,2.176,0.675c0.573,0.45,0.86,1.023,0.86,1.72
		c0,0.203-0.022,0.405-0.067,0.607l-1.079,4.082c-0.09,0.292-0.304,0.438-0.641,0.438H125.513z"/>
	<path fill="#FFFFFF" d="M137.52,27.594l3.778-14.168c0-0.021,0-0.045,0-0.067c0-0.225-0.146-0.337-0.438-0.337h-4.554
		c-0.36,0-0.63-0.101-0.81-0.304c-0.652-0.652-0.978-1-0.978-1.046c0-0.089,0.101-0.135,0.304-0.135h19.564
		c0.292,0,0.438,0.101,0.438,0.304c0,0.787-0.281,1.181-0.843,1.181h-4.554c-0.36,0-0.573,0.135-0.641,0.404l-3.745,14.168
		c-0.09,0.27-0.303,0.404-0.641,0.404h-6.443c-0.292,0-0.438-0.102-0.438-0.305C137.52,27.648,137.52,27.615,137.52,27.594z"/>
	<path fill="#FFFFFF" d="M186.834,14.471l-1.585,6.004c-0.18,0.675-0.664,1.288-1.451,1.839s-1.63,0.905-2.53,1.063
		c0.022,0.112,0.337,0.849,0.945,2.209c0.607,1.362,0.911,2.063,0.911,2.108c0,0.182-0.135,0.27-0.404,0.27h-6.438
		c-0.359,0-0.584-0.123-0.674-0.369l-1.314-3.746c-0.113-0.247-0.314-0.37-0.606-0.37c-0.314,0-0.517,0.135-0.606,0.404
		l-0.944,3.678c-0.09,0.27-0.304,0.402-0.641,0.402h-6.45c-0.293,0-0.439-0.1-0.439-0.303c0-0.045,0-0.078,0-0.102l3.778-14.167
		c0-0.045,0-0.102,0-0.169c0-0.27-0.191-0.584-0.573-0.944c-0.383-0.359-0.574-0.573-0.574-0.641c0-0.112,0.102-0.168,0.304-0.168
		h16.326c0.877,0,1.602,0.225,2.175,0.675c0.574,0.45,0.86,1.023,0.86,1.72C186.902,14.067,186.879,14.269,186.834,14.471z
		 M176.819,21.959c0.358,0,0.571-0.135,0.638-0.404l2.159-8.163c0.022-0.022,0.034-0.056,0.034-0.102
		c0-0.202-0.146-0.304-0.438-0.304h-2.691c-0.359,0-0.572,0.137-0.639,0.408l-2.16,8.162c0,0.023-0.009,0.058-0.027,0.104
		c0,0.199,0.146,0.299,0.437,0.299H176.819z"/>
	<path fill="#FFFFFF" d="M206.533,11.469c0.292,0,0.438,0.113,0.438,0.337c0,0.788-0.281,1.18-0.843,1.18h-8.298
		c-0.36,0-0.574,0.136-0.641,0.405c-0.922,3.463-1.383,5.217-1.383,5.262c0,0.226,0.146,0.338,0.438,0.338h8.298
		c0.18,0,0.27,0.033,0.27,0.101c0,0.046-0.067,0.102-0.203,0.169l-1.349,0.911c-0.292,0.202-0.619,0.303-0.978,0.303h-6.443
		c-0.36,0-0.573,0.146-0.641,0.438c-0.922,3.464-1.383,5.208-1.383,5.229c0,0.225,0.146,0.338,0.438,0.338h8.298
		c0.18,0,0.27,0.033,0.27,0.1c0,0.047-0.067,0.113-0.203,0.203l-1.349,0.877c-0.292,0.203-0.607,0.303-0.944,0.303h-13.965
		c-0.292,0-0.438-0.1-0.438-0.303c0-0.045,0-0.078,0-0.102l3.778-14.167c0-0.045,0-0.102,0-0.169c0-0.27-0.191-0.584-0.573-0.944
		c-0.383-0.359-0.574-0.573-0.574-0.641c0-0.112,0.102-0.168,0.304-0.168H206.533z"/>
	<path fill="#FFFFFF" d="M214.156,17.473h6.982c0.877,0,1.603,0.22,2.176,0.658c0.574,0.438,0.86,1.007,0.86,1.703
		c0,0.226-0.034,0.438-0.102,0.641l-1.18,4.486c-0.225,0.833-0.776,1.541-1.653,2.125c-0.877,0.586-1.844,0.877-2.901,0.877h-14.471
		c-0.158,0-0.236-0.033-0.236-0.1c0-0.045,0.056-0.113,0.168-0.203c1.214-0.787,2.001-1.18,2.361-1.18h8.298
		c0.359,0,0.574-0.146,0.641-0.439c0.652-2.473,0.978-3.721,0.978-3.744c0-0.225-0.135-0.338-0.405-0.338h-6.982
		c-0.877,0-1.602-0.219-2.176-0.657c-0.573-0.438-0.86-1.007-0.86-1.704c0-0.202,0.034-0.404,0.101-0.606l1.181-4.521
		c0.225-0.81,0.776-1.512,1.653-2.107c0.877-0.596,1.844-0.895,2.901-0.895h14.471c0.157,0,0.236,0.034,0.236,0.101
		s-0.057,0.135-0.169,0.203c-1.214,0.81-2.001,1.214-2.361,1.214h-8.298c-0.36,0-0.573,0.136-0.641,0.405
		c-0.652,2.474-0.979,3.722-0.979,3.744C213.751,17.361,213.887,17.473,214.156,17.473z"/>
	<path fill="#FFFFFF" d="M245.644,12.144c0.573,0.45,0.86,1.023,0.86,1.72c0,0.203-0.022,0.405-0.067,0.607l-2.799,10.49
		c-0.225,0.833-0.776,1.541-1.653,2.125c-0.877,0.586-1.844,0.877-2.901,0.877h-11.233c-0.877,0-1.602-0.219-2.175-0.656
		c-0.574-0.439-0.86-1.006-0.86-1.704c0-0.203,0.034-0.416,0.101-0.642l2.766-10.49c0.225-0.81,0.776-1.512,1.653-2.107
		c0.877-0.596,1.844-0.895,2.901-0.895h11.232C244.345,11.469,245.071,11.694,245.644,12.144z M235.204,26.48
		c0.359,0,0.573-0.146,0.641-0.439l3.374-12.649c0-0.022,0-0.056,0-0.102c0-0.202-0.135-0.304-0.404-0.304h-2.693
		c-0.359,0-0.572,0.137-0.639,0.407l-3.374,12.649c0,0.045-0.003,0.078-0.007,0.102c0,0.223,0.146,0.336,0.438,0.336H235.204z"/>
	<path fill="#FFFFFF" d="M249.438,27.998c-0.877,0-1.602-0.221-2.175-0.658c-0.574-0.439-0.86-1.006-0.86-1.704
		c0-0.202,0.034-0.404,0.101-0.607l3.07-11.604c0-0.045,0-0.101,0-0.168c0-0.271-0.191-0.585-0.574-0.944
		c-0.382-0.36-0.573-0.574-0.573-0.642c0-0.089,0.101-0.135,0.304-0.135h8.298c0.292,0,0.438,0.101,0.438,0.304
		c0,0.022,0,0.056,0,0.101l-3.778,14.133c0,0.047,0,0.08,0,0.102c0,0.225,0.146,0.338,0.438,0.338h2.659
		c0.359,0,0.572-0.146,0.64-0.441l3.778-14.133c0.067-0.269,0.281-0.403,0.641-0.403h6.449c0.27,0,0.405,0.101,0.405,0.304
		c0,0.022,0,0.056,0,0.101l-3.474,13.087c-0.225,0.81-0.776,1.506-1.653,2.092c-0.877,0.584-1.844,0.877-2.901,0.877H249.438z"/>
	<path fill="#FFFFFF" d="M290.625,14.471l-1.586,6.004c-0.18,0.675-0.664,1.288-1.449,1.839c-0.789,0.551-1.631,0.905-2.531,1.063
		c0.023,0.112,0.338,0.849,0.945,2.209c0.607,1.362,0.91,2.063,0.91,2.108c0,0.182-0.135,0.27-0.404,0.27h-6.438
		c-0.359,0-0.584-0.123-0.674-0.369l-1.314-3.746c-0.113-0.247-0.314-0.37-0.606-0.37c-0.314,0-0.517,0.135-0.606,0.404
		l-0.944,3.678c-0.09,0.27-0.304,0.402-0.641,0.402h-6.45c-0.293,0-0.439-0.1-0.439-0.303c0-0.045,0-0.078,0-0.102l3.778-14.167
		c0-0.045,0-0.102,0-0.169c0-0.27-0.191-0.584-0.573-0.944c-0.383-0.359-0.574-0.573-0.574-0.641c0-0.112,0.102-0.168,0.304-0.168
		h16.326c0.877,0,1.602,0.225,2.176,0.675c0.574,0.45,0.859,1.023,0.859,1.72C290.691,14.067,290.669,14.269,290.625,14.471z
		 M280.609,21.959c0.358,0,0.571-0.135,0.638-0.404l2.159-8.163c0.021-0.022,0.033-0.056,0.033-0.102
		c0-0.202-0.145-0.304-0.438-0.304h-2.69c-0.359,0-0.572,0.137-0.639,0.408l-2.16,8.162c0,0.023-0.009,0.058-0.027,0.104
		c0,0.199,0.146,0.299,0.437,0.299H280.609z"/>
	<path fill="#FFFFFF" d="M303.172,18.992c-0.293,0-0.438-0.112-0.438-0.338c0-0.449,0.23-1.36,0.691-2.732
		c0.461-1.371,0.691-2.248,0.691-2.631c0-0.202-0.135-0.304-0.403-0.304h-2.692c-0.359,0-0.572,0.137-0.64,0.408l-3.376,12.648
		c0,0.045-0.002,0.078-0.006,0.1c0,0.225,0.146,0.338,0.438,0.338h2.665c0.359,0,0.573-0.146,0.641-0.439l1.383-5.127
		c0.067-0.292,0.281-0.438,0.641-0.438h6.443c0.292,0,0.438,0.113,0.438,0.338c0,0.045-0.371,1.428-1.113,4.148
		c-0.226,0.833-0.776,1.541-1.653,2.125c-0.877,0.586-1.844,0.877-2.9,0.877H292.75c-0.877,0-1.603-0.219-2.176-0.656
		c-0.573-0.439-0.86-1.006-0.86-1.704c0-0.203,0.034-0.416,0.102-0.642l2.766-10.49c0.225-0.81,0.775-1.512,1.652-2.107
		c0.878-0.596,1.844-0.895,2.901-0.895h11.232c0.877,0,1.603,0.225,2.176,0.675c0.573,0.45,0.86,1.023,0.86,1.72
		c0,0.203-0.022,0.405-0.067,0.607l-1.08,4.082c-0.09,0.292-0.304,0.438-0.641,0.438H303.172z"/>
	<path fill="#FFFFFF" d="M331.674,11.469c0.292,0,0.438,0.113,0.438,0.337c0,0.788-0.281,1.18-0.843,1.18h-8.298
		c-0.36,0-0.573,0.136-0.641,0.405c-0.923,3.463-1.384,5.217-1.384,5.262c0,0.226,0.146,0.338,0.438,0.338h8.299
		c0.18,0,0.27,0.033,0.27,0.101c0,0.046-0.067,0.102-0.202,0.169l-1.35,0.911c-0.293,0.202-0.619,0.303-0.979,0.303h-6.442
		c-0.36,0-0.573,0.146-0.641,0.438c-0.923,3.464-1.383,5.208-1.383,5.229c0,0.225,0.146,0.338,0.438,0.338h8.298
		c0.18,0,0.27,0.033,0.27,0.1c0,0.047-0.067,0.113-0.202,0.203l-1.35,0.877c-0.292,0.203-0.607,0.303-0.944,0.303h-13.965
		c-0.293,0-0.438-0.1-0.438-0.303c0-0.045,0-0.078,0-0.102l3.778-14.167c0-0.045,0-0.102,0-0.169c0-0.27-0.191-0.584-0.574-0.944
		c-0.382-0.359-0.573-0.573-0.573-0.641c0-0.112,0.102-0.168,0.304-0.168H331.674z"/>
	<path fill="#FFFFFF" d="M360.986,27.963c-0.27,0-0.404-0.1-0.404-0.303c0-0.045,0-0.078,0-0.102l2.496-9.647
		c0-0.045,0-0.084,0-0.118c0-0.033,0-0.062,0-0.084c-0.046,0.067-0.091,0.124-0.135,0.169l-5.296,9.68
		c-0.158,0.27-0.417,0.404-0.776,0.404h-7.117c-0.36,0-0.563-0.135-0.607-0.404l-1.416-7.69c0-0.09-0.023-0.146-0.067-0.169
		c-0.046,0.067-0.079,0.124-0.102,0.169l-1.956,7.69c-0.091,0.27-0.304,0.404-0.642,0.404h-2.698c-0.293,0-0.438-0.1-0.438-0.303
		c0-0.045,0-0.078,0-0.102l3.778-14.167c0.021-0.045,0.033-0.102,0.033-0.169c0-0.27-0.197-0.584-0.59-0.944
		c-0.395-0.359-0.591-0.573-0.591-0.641c0-0.112,0.102-0.168,0.304-0.168h8.332c0.337,0,0.527,0.135,0.573,0.405l2.227,11.907
		c0,0.113,0.033,0.169,0.101,0.169s0.135-0.056,0.202-0.169l6.544-11.873c0.157-0.292,0.416-0.438,0.776-0.438h8.298
		c0.292,0,0.438,0.113,0.438,0.337c0,0.022-0.012,0.056-0.034,0.101l-4.148,15.651c-0.067,0.27-0.281,0.404-0.642,0.404H360.986z"/>
	<path fill="#FFFFFF" d="M375.558,25.367l-1.585,2.192c-0.181,0.27-0.45,0.404-0.81,0.404h-2.665c-0.226,0-0.337-0.066-0.337-0.201
		c0-0.045,3.282-4.632,9.849-13.762c0.136-0.203,0.203-0.416,0.203-0.642c0-0.157-0.051-0.404-0.152-0.742
		c-0.101-0.337-0.151-0.584-0.151-0.742c0-0.225,0.146-0.337,0.438-0.337l8.433-0.067c0.359,0,0.573,0.135,0.641,0.405l3.509,15.72
		v0.066c0,0.203-0.146,0.303-0.438,0.303h-8.332c-0.337,0-0.54-0.123-0.607-0.369l-0.573-2.227c-0.067-0.271-0.27-0.405-0.607-0.405
		h-5.97C376.042,24.961,375.76,25.096,375.558,25.367z M381.292,17.676c-0.022-0.112-0.067-0.169-0.135-0.169
		c-0.09,0-0.169,0.057-0.236,0.169l-3.71,5.396c-0.046,0.09-0.068,0.157-0.068,0.202c0,0.135,0.102,0.203,0.304,0.203h4.621
		c0.271,0,0.405-0.112,0.405-0.338L381.292,17.676z"/>
	<path fill="#FFFFFF" d="M397.719,12.279c-0.382-0.359-0.573-0.573-0.573-0.641c0-0.112,0.102-0.168,0.304-0.168h8.298
		c0.359,0,0.596,0.124,0.708,0.371l4.251,10.524c0.021,0.067,0.067,0.124,0.135,0.168c0.067,0,0.112-0.067,0.135-0.202l2.698-10.423
		c0.067-0.292,0.281-0.438,0.641-0.438h2.699c0.292,0,0.438,0.113,0.438,0.337c0,0.022-0.012,0.056-0.034,0.101l-4.148,15.651
		c-0.067,0.27-0.282,0.404-0.642,0.404h-6.442c-0.359,0-0.585-0.123-0.675-0.369l-4.283-10.525
		c-0.023-0.067-0.067-0.112-0.136-0.135c-0.045,0-0.09,0.067-0.135,0.202l-2.664,10.422c-0.091,0.27-0.304,0.404-0.642,0.404h-2.698
		c-0.293,0-0.438-0.1-0.438-0.303c0-0.045,0-0.078,0-0.102l3.778-14.167c0-0.045,0-0.102,0-0.169
		C398.293,12.954,398.102,12.639,397.719,12.279z"/>
	<path fill="#FFFFFF" d="M420.758,25.367l-1.585,2.192c-0.181,0.27-0.45,0.404-0.81,0.404h-2.665c-0.226,0-0.337-0.066-0.337-0.201
		c0-0.045,3.282-4.632,9.849-13.762c0.136-0.203,0.203-0.416,0.203-0.642c0-0.157-0.051-0.404-0.152-0.742
		c-0.101-0.337-0.151-0.584-0.151-0.742c0-0.225,0.146-0.337,0.438-0.337l8.433-0.067c0.359,0,0.572,0.135,0.641,0.405l3.508,15.72
		v0.066c0,0.203-0.146,0.303-0.438,0.303h-8.333c-0.337,0-0.54-0.123-0.607-0.369l-0.573-2.227c-0.067-0.271-0.27-0.405-0.607-0.405
		h-5.97C421.242,24.961,420.96,25.096,420.758,25.367z M426.493,17.676c-0.022-0.112-0.067-0.169-0.135-0.169
		c-0.09,0-0.169,0.057-0.236,0.169l-3.71,5.396c-0.046,0.09-0.068,0.157-0.068,0.202c0,0.135,0.102,0.203,0.304,0.203h4.621
		c0.271,0,0.405-0.112,0.405-0.338L426.493,17.676z"/>
	<path fill="#FFFFFF" d="M453.175,18.992c-0.293,0-0.439-0.112-0.439-0.337c0-0.383,0.234-1.259,0.701-2.629
		c0.467-1.371,0.699-2.281,0.699-2.73c0-0.205-0.135-0.309-0.406-0.309h-2.711c-0.361,0-0.576,0.136-0.645,0.405l-3.373,12.649
		c0,0.045,0,0.08,0,0.102c0,0.225,0.146,0.338,0.438,0.338h2.66c0.357,0,0.572-0.146,0.639-0.441l1.088-4.079
		c-0.832-0.855-1.248-1.305-1.248-1.35c0-0.09,0.102-0.136,0.303-0.136h8.332c0.293,0,0.439,0.113,0.439,0.338
		c0,0.022-0.012,0.057-0.035,0.101l-1.754,6.645c-0.09,0.27-0.303,0.404-0.641,0.404h-14.471c-0.877,0-1.602-0.219-2.176-0.656
		c-0.572-0.439-0.859-1.006-0.859-1.704c0-0.203,0.033-0.416,0.102-0.642l2.766-10.49c0.225-0.81,0.775-1.512,1.652-2.107
		c0.877-0.596,1.844-0.895,2.9-0.895h11.232c0.877,0,1.604,0.225,2.176,0.675c0.574,0.45,0.861,1.023,0.861,1.72
		c0,0.203-0.023,0.405-0.068,0.607l-1.08,4.082c-0.09,0.292-0.303,0.438-0.641,0.438H453.175z"/>
	<path fill="#FFFFFF" d="M481.001,11.469c0.293,0,0.439,0.113,0.439,0.337c0,0.788-0.281,1.18-0.844,1.18H472.3
		c-0.361,0-0.574,0.136-0.641,0.405c-0.924,3.463-1.385,5.217-1.385,5.262c0,0.226,0.146,0.338,0.439,0.338h8.299
		c0.18,0,0.27,0.033,0.27,0.101c0,0.046-0.068,0.102-0.203,0.169l-1.35,0.911c-0.293,0.202-0.619,0.303-0.979,0.303h-6.441
		c-0.361,0-0.574,0.146-0.641,0.438c-0.924,3.464-1.383,5.208-1.383,5.229c0,0.225,0.145,0.338,0.438,0.338h8.299
		c0.18,0,0.27,0.033,0.27,0.1c0,0.047-0.068,0.113-0.203,0.203l-1.35,0.877c-0.291,0.203-0.607,0.303-0.943,0.303h-13.965
		c-0.293,0-0.439-0.1-0.439-0.303c0-0.045,0-0.078,0-0.102l3.779-14.167c0-0.045,0-0.102,0-0.169c0-0.27-0.191-0.584-0.574-0.944
		c-0.383-0.359-0.574-0.573-0.574-0.641c0-0.112,0.102-0.168,0.305-0.168H481.001z"/>
	<path fill="#FFFFFF" d="M499.183,27.963c-0.27,0-0.404-0.1-0.404-0.303c0-0.045,0-0.078,0-0.102l2.496-9.647
		c0-0.045,0-0.084,0-0.118c0-0.033,0-0.062,0-0.084c-0.047,0.067-0.092,0.124-0.135,0.169l-5.297,9.68
		c-0.158,0.27-0.416,0.404-0.775,0.404h-7.117c-0.361,0-0.563-0.135-0.607-0.404l-1.416-7.69c0-0.09-0.023-0.146-0.068-0.169
		c-0.045,0.067-0.078,0.124-0.102,0.169l-1.955,7.69c-0.092,0.27-0.305,0.404-0.643,0.404h-2.697c-0.293,0-0.439-0.1-0.439-0.303
		c0-0.045,0-0.078,0-0.102l3.779-14.167c0.021-0.045,0.033-0.102,0.033-0.169c0-0.27-0.197-0.584-0.59-0.944
		c-0.395-0.359-0.592-0.573-0.592-0.641c0-0.112,0.102-0.168,0.305-0.168h8.332c0.336,0,0.527,0.135,0.572,0.405l2.227,11.907
		c0,0.113,0.033,0.169,0.102,0.169c0.066,0,0.135-0.056,0.201-0.169l6.545-11.873c0.156-0.292,0.416-0.438,0.775-0.438h8.299
		c0.291,0,0.438,0.113,0.438,0.337c0,0.022-0.012,0.056-0.033,0.101l-4.148,15.651c-0.068,0.27-0.281,0.404-0.643,0.404H499.183z"/>
	<path fill="#FFFFFF" d="M530.417,11.469c0.291,0,0.438,0.113,0.438,0.337c0,0.788-0.281,1.18-0.842,1.18h-8.299
		c-0.359,0-0.572,0.136-0.641,0.405c-0.922,3.463-1.383,5.217-1.383,5.262c0,0.226,0.146,0.338,0.438,0.338h8.299
		c0.18,0,0.27,0.033,0.27,0.101c0,0.046-0.066,0.102-0.201,0.169l-1.35,0.911c-0.293,0.202-0.619,0.303-0.979,0.303h-6.443
		c-0.359,0-0.572,0.146-0.641,0.438c-0.922,3.464-1.383,5.208-1.383,5.229c0,0.225,0.146,0.338,0.439,0.338h8.297
		c0.18,0,0.27,0.033,0.27,0.1c0,0.047-0.066,0.113-0.201,0.203l-1.35,0.877c-0.293,0.203-0.607,0.303-0.945,0.303h-13.965
		c-0.293,0-0.438-0.1-0.438-0.303c0-0.045,0-0.078,0-0.102l3.777-14.167c0-0.045,0-0.102,0-0.169c0-0.27-0.191-0.584-0.574-0.944
		c-0.381-0.359-0.572-0.573-0.572-0.641c0-0.112,0.102-0.168,0.303-0.168H530.417z"/>
	<path fill="#FFFFFF" d="M532.644,12.279c-0.383-0.359-0.574-0.573-0.574-0.641c0-0.112,0.102-0.168,0.305-0.168h8.297
		c0.359,0,0.596,0.124,0.709,0.371l4.25,10.524c0.021,0.067,0.068,0.124,0.135,0.168c0.068,0,0.113-0.067,0.135-0.202l2.699-10.423
		c0.066-0.292,0.281-0.438,0.641-0.438h2.699c0.291,0,0.438,0.113,0.438,0.337c0,0.022-0.012,0.056-0.033,0.101l-4.148,15.651
		c-0.068,0.27-0.283,0.404-0.643,0.404h-6.441c-0.359,0-0.586-0.123-0.676-0.369l-4.283-10.525
		c-0.023-0.067-0.066-0.112-0.135-0.135c-0.045,0-0.09,0.067-0.135,0.202l-2.664,10.422c-0.092,0.27-0.305,0.404-0.643,0.404h-2.697
		c-0.293,0-0.439-0.1-0.439-0.303c0-0.045,0-0.078,0-0.102l3.779-14.167c0-0.045,0-0.102,0-0.169
		C533.218,12.954,533.026,12.639,532.644,12.279z"/>
	<path fill="#FFFFFF" d="M556.827,27.594l3.779-14.168c0-0.021,0-0.045,0-0.067c0-0.225-0.146-0.337-0.439-0.337h-4.553
		c-0.361,0-0.631-0.101-0.811-0.304c-0.652-0.652-0.979-1-0.979-1.046c0-0.089,0.102-0.135,0.305-0.135h19.564
		c0.291,0,0.438,0.101,0.438,0.304c0,0.787-0.281,1.181-0.844,1.181h-4.553c-0.361,0-0.574,0.135-0.641,0.404l-3.744,14.168
		c-0.092,0.27-0.305,0.404-0.643,0.404h-6.441c-0.293,0-0.439-0.102-0.439-0.305C556.827,27.648,556.827,27.615,556.827,27.594z"/>
</g>
</svg>
